<mxfile host="app.diagrams.net" modified="2023-12-21T17:57:03.184Z" agent="Mozilla/5.0 (Windows NT 10.0; Win64; x64) AppleWebKit/537.36 (KHTML, like Gecko) Chrome/120.0.0.0 Safari/537.36 Edg/120.0.0.0" etag="at-3g45Tc8nDoadmETiw" version="22.1.11" type="github">
  <diagram name="Página-1" id="WmKUgkADR4I6LGXGOh8T">
    <mxGraphModel dx="1346" dy="613" grid="1" gridSize="10" guides="1" tooltips="1" connect="1" arrows="1" fold="1" page="1" pageScale="1" pageWidth="827" pageHeight="1169" math="0" shadow="0">
      <root>
        <mxCell id="0" />
        <mxCell id="1" parent="0" />
        <mxCell id="ux-VT5GkIsKEfBcYhYNy-1" value="&lt;div&gt;EJRCICIO DE DISEÑO DE BBDD&amp;nbsp;&lt;/div&gt;&lt;div&gt;&lt;br&gt;&lt;/div&gt;&lt;div&gt;Una entidad bancaria está formada por varias sucursales y cada sucursal tiene un gran número de cuentas que son propiedad de los clientes.&amp;nbsp;&lt;/div&gt;&lt;div&gt;Los datos saldo, debe y haber deben aparecer en cada una de las cuentas. Las cuentas son de dos tipos:&amp;nbsp;&lt;/div&gt;&lt;div&gt;cuenta de ahorro con el atributo específico tipo de interés. Y cuenta corriente, con el atributo específico cantidad de descubierto. Las cuentas o son corrientes o son de ahorro.&lt;/div&gt;&lt;div&gt;Un cliente puede tener varias cuentas. Una cuenta es sólo propiedad de un cliente. Las cuentas realizan una serie de movimientos, en los que además de otros datos deben aparecer la cantidad implicada y la fecha. Existe una serie de tipos de movimientos reconocidos por el banco. Un movimiento pertenece a un tipo. Sin embargo, de un tipo de movimiento puede haber varios movimientos.&lt;/div&gt;&lt;div&gt;&lt;br&gt;&lt;/div&gt;&lt;div&gt;&lt;br&gt;&lt;/div&gt;&lt;div&gt;&lt;br&gt;&lt;/div&gt;&lt;div&gt;&lt;br&gt;&lt;/div&gt;" style="text;html=1;strokeColor=none;fillColor=none;align=center;verticalAlign=middle;whiteSpace=wrap;rounded=0;" vertex="1" parent="1">
          <mxGeometry x="210" y="30" width="470" height="280" as="geometry" />
        </mxCell>
        <mxCell id="ux-VT5GkIsKEfBcYhYNy-14" style="edgeStyle=orthogonalEdgeStyle;rounded=0;orthogonalLoop=1;jettySize=auto;html=1;entryX=0;entryY=0.5;entryDx=0;entryDy=0;" edge="1" parent="1" source="ux-VT5GkIsKEfBcYhYNy-2" target="ux-VT5GkIsKEfBcYhYNy-3">
          <mxGeometry relative="1" as="geometry" />
        </mxCell>
        <mxCell id="ux-VT5GkIsKEfBcYhYNy-2" value="entidad_bancaria" style="rounded=0;whiteSpace=wrap;html=1;" vertex="1" parent="1">
          <mxGeometry x="150" y="400" width="120" height="60" as="geometry" />
        </mxCell>
        <mxCell id="ux-VT5GkIsKEfBcYhYNy-15" style="edgeStyle=orthogonalEdgeStyle;rounded=0;orthogonalLoop=1;jettySize=auto;html=1;entryX=0;entryY=0.5;entryDx=0;entryDy=0;" edge="1" parent="1" source="ux-VT5GkIsKEfBcYhYNy-3" target="ux-VT5GkIsKEfBcYhYNy-4">
          <mxGeometry relative="1" as="geometry" />
        </mxCell>
        <mxCell id="ux-VT5GkIsKEfBcYhYNy-3" value="tiene" style="rhombus;whiteSpace=wrap;html=1;" vertex="1" parent="1">
          <mxGeometry x="360" y="400" width="80" height="80" as="geometry" />
        </mxCell>
        <mxCell id="ux-VT5GkIsKEfBcYhYNy-16" style="edgeStyle=orthogonalEdgeStyle;rounded=0;orthogonalLoop=1;jettySize=auto;html=1;entryX=0.5;entryY=0;entryDx=0;entryDy=0;" edge="1" parent="1" source="ux-VT5GkIsKEfBcYhYNy-4" target="ux-VT5GkIsKEfBcYhYNy-5">
          <mxGeometry relative="1" as="geometry" />
        </mxCell>
        <mxCell id="ux-VT5GkIsKEfBcYhYNy-4" value="sucursales" style="rounded=0;whiteSpace=wrap;html=1;" vertex="1" parent="1">
          <mxGeometry x="590" y="400" width="120" height="60" as="geometry" />
        </mxCell>
        <mxCell id="ux-VT5GkIsKEfBcYhYNy-17" style="edgeStyle=orthogonalEdgeStyle;rounded=0;orthogonalLoop=1;jettySize=auto;html=1;entryX=0.5;entryY=0;entryDx=0;entryDy=0;" edge="1" parent="1" source="ux-VT5GkIsKEfBcYhYNy-5" target="ux-VT5GkIsKEfBcYhYNy-6">
          <mxGeometry relative="1" as="geometry" />
        </mxCell>
        <mxCell id="ux-VT5GkIsKEfBcYhYNy-5" value="tiene" style="rhombus;whiteSpace=wrap;html=1;" vertex="1" parent="1">
          <mxGeometry x="610" y="530" width="80" height="80" as="geometry" />
        </mxCell>
        <mxCell id="ux-VT5GkIsKEfBcYhYNy-18" style="edgeStyle=orthogonalEdgeStyle;rounded=0;orthogonalLoop=1;jettySize=auto;html=1;entryX=1;entryY=0.5;entryDx=0;entryDy=0;" edge="1" parent="1" source="ux-VT5GkIsKEfBcYhYNy-6" target="ux-VT5GkIsKEfBcYhYNy-7">
          <mxGeometry relative="1" as="geometry" />
        </mxCell>
        <mxCell id="ux-VT5GkIsKEfBcYhYNy-6" value="numero_cuentas" style="rounded=0;whiteSpace=wrap;html=1;" vertex="1" parent="1">
          <mxGeometry x="590" y="710" width="120" height="60" as="geometry" />
        </mxCell>
        <mxCell id="ux-VT5GkIsKEfBcYhYNy-7" value="pertenecen" style="rhombus;whiteSpace=wrap;html=1;" vertex="1" parent="1">
          <mxGeometry x="360" y="700" width="80" height="80" as="geometry" />
        </mxCell>
        <mxCell id="ux-VT5GkIsKEfBcYhYNy-8" value="clientes" style="rounded=0;whiteSpace=wrap;html=1;" vertex="1" parent="1">
          <mxGeometry x="130" y="720" width="120" height="60" as="geometry" />
        </mxCell>
        <mxCell id="ux-VT5GkIsKEfBcYhYNy-9" value="" style="triangle;whiteSpace=wrap;html=1;direction=south;" vertex="1" parent="1">
          <mxGeometry x="610" y="780" width="80" height="60" as="geometry" />
        </mxCell>
        <mxCell id="ux-VT5GkIsKEfBcYhYNy-51" style="edgeStyle=orthogonalEdgeStyle;rounded=0;orthogonalLoop=1;jettySize=auto;html=1;entryX=0.5;entryY=1;entryDx=0;entryDy=0;" edge="1" parent="1" source="ux-VT5GkIsKEfBcYhYNy-10" target="ux-VT5GkIsKEfBcYhYNy-9">
          <mxGeometry relative="1" as="geometry" />
        </mxCell>
        <mxCell id="ux-VT5GkIsKEfBcYhYNy-10" value="cuenta_ahorro" style="rounded=0;whiteSpace=wrap;html=1;" vertex="1" parent="1">
          <mxGeometry x="440" y="840" width="120" height="60" as="geometry" />
        </mxCell>
        <mxCell id="ux-VT5GkIsKEfBcYhYNy-52" style="edgeStyle=orthogonalEdgeStyle;rounded=0;orthogonalLoop=1;jettySize=auto;html=1;" edge="1" parent="1" source="ux-VT5GkIsKEfBcYhYNy-11" target="ux-VT5GkIsKEfBcYhYNy-9">
          <mxGeometry relative="1" as="geometry" />
        </mxCell>
        <mxCell id="ux-VT5GkIsKEfBcYhYNy-11" value="cuenta_corriente" style="rounded=0;whiteSpace=wrap;html=1;" vertex="1" parent="1">
          <mxGeometry x="760" y="840" width="120" height="60" as="geometry" />
        </mxCell>
        <mxCell id="ux-VT5GkIsKEfBcYhYNy-40" style="edgeStyle=orthogonalEdgeStyle;rounded=0;orthogonalLoop=1;jettySize=auto;html=1;entryX=0;entryY=0.5;entryDx=0;entryDy=0;" edge="1" parent="1" source="ux-VT5GkIsKEfBcYhYNy-12" target="ux-VT5GkIsKEfBcYhYNy-10">
          <mxGeometry relative="1" as="geometry" />
        </mxCell>
        <mxCell id="ux-VT5GkIsKEfBcYhYNy-12" value="intereses" style="ellipse;whiteSpace=wrap;html=1;" vertex="1" parent="1">
          <mxGeometry x="320" y="940" width="120" height="80" as="geometry" />
        </mxCell>
        <mxCell id="ux-VT5GkIsKEfBcYhYNy-41" style="edgeStyle=orthogonalEdgeStyle;rounded=0;orthogonalLoop=1;jettySize=auto;html=1;entryX=1;entryY=0.5;entryDx=0;entryDy=0;" edge="1" parent="1" source="ux-VT5GkIsKEfBcYhYNy-13" target="ux-VT5GkIsKEfBcYhYNy-11">
          <mxGeometry relative="1" as="geometry" />
        </mxCell>
        <mxCell id="ux-VT5GkIsKEfBcYhYNy-13" value="cantidad_descubierto" style="ellipse;whiteSpace=wrap;html=1;" vertex="1" parent="1">
          <mxGeometry x="890" y="940" width="120" height="80" as="geometry" />
        </mxCell>
        <mxCell id="ux-VT5GkIsKEfBcYhYNy-19" style="edgeStyle=orthogonalEdgeStyle;rounded=0;orthogonalLoop=1;jettySize=auto;html=1;entryX=1.033;entryY=0.367;entryDx=0;entryDy=0;entryPerimeter=0;" edge="1" parent="1" source="ux-VT5GkIsKEfBcYhYNy-7" target="ux-VT5GkIsKEfBcYhYNy-8">
          <mxGeometry relative="1" as="geometry" />
        </mxCell>
        <mxCell id="ux-VT5GkIsKEfBcYhYNy-55" style="edgeStyle=orthogonalEdgeStyle;rounded=0;orthogonalLoop=1;jettySize=auto;html=1;entryX=1;entryY=0.5;entryDx=0;entryDy=0;" edge="1" parent="1" source="ux-VT5GkIsKEfBcYhYNy-20" target="ux-VT5GkIsKEfBcYhYNy-9">
          <mxGeometry relative="1" as="geometry" />
        </mxCell>
        <mxCell id="ux-VT5GkIsKEfBcYhYNy-61" style="edgeStyle=orthogonalEdgeStyle;rounded=0;orthogonalLoop=1;jettySize=auto;html=1;exitX=0.5;exitY=1;exitDx=0;exitDy=0;" edge="1" parent="1" source="ux-VT5GkIsKEfBcYhYNy-20" target="ux-VT5GkIsKEfBcYhYNy-54">
          <mxGeometry relative="1" as="geometry" />
        </mxCell>
        <mxCell id="ux-VT5GkIsKEfBcYhYNy-20" value="realizan" style="rhombus;whiteSpace=wrap;html=1;" vertex="1" parent="1">
          <mxGeometry x="615" y="870" width="80" height="80" as="geometry" />
        </mxCell>
        <mxCell id="ux-VT5GkIsKEfBcYhYNy-58" style="edgeStyle=orthogonalEdgeStyle;rounded=0;orthogonalLoop=1;jettySize=auto;html=1;entryX=0;entryY=0;entryDx=0;entryDy=0;" edge="1" parent="1" source="ux-VT5GkIsKEfBcYhYNy-21" target="ux-VT5GkIsKEfBcYhYNy-54">
          <mxGeometry relative="1" as="geometry" />
        </mxCell>
        <mxCell id="ux-VT5GkIsKEfBcYhYNy-21" value="cantidad_implicada" style="ellipse;whiteSpace=wrap;html=1;" vertex="1" parent="1">
          <mxGeometry x="240" y="1040" width="120" height="80" as="geometry" />
        </mxCell>
        <mxCell id="ux-VT5GkIsKEfBcYhYNy-22" value="fecha_movimiento" style="ellipse;whiteSpace=wrap;html=1;" vertex="1" parent="1">
          <mxGeometry x="240" y="1150" width="120" height="80" as="geometry" />
        </mxCell>
        <mxCell id="ux-VT5GkIsKEfBcYhYNy-23" style="edgeStyle=orthogonalEdgeStyle;rounded=0;orthogonalLoop=1;jettySize=auto;html=1;entryX=0;entryY=1;entryDx=0;entryDy=0;" edge="1" parent="1" source="ux-VT5GkIsKEfBcYhYNy-22" target="ux-VT5GkIsKEfBcYhYNy-54">
          <mxGeometry relative="1" as="geometry" />
        </mxCell>
        <mxCell id="ux-VT5GkIsKEfBcYhYNy-25" value="1" style="text;html=1;align=center;verticalAlign=middle;resizable=0;points=[];autosize=1;strokeColor=none;fillColor=none;" vertex="1" parent="1">
          <mxGeometry x="275" y="378" width="30" height="30" as="geometry" />
        </mxCell>
        <mxCell id="ux-VT5GkIsKEfBcYhYNy-26" value="n" style="text;html=1;align=center;verticalAlign=middle;resizable=0;points=[];autosize=1;strokeColor=none;fillColor=none;" vertex="1" parent="1">
          <mxGeometry x="565" y="378" width="30" height="30" as="geometry" />
        </mxCell>
        <mxCell id="ux-VT5GkIsKEfBcYhYNy-27" value="n" style="text;html=1;align=center;verticalAlign=middle;resizable=0;points=[];autosize=1;strokeColor=none;fillColor=none;" vertex="1" parent="1">
          <mxGeometry x="565" y="448" width="30" height="30" as="geometry" />
        </mxCell>
        <mxCell id="ux-VT5GkIsKEfBcYhYNy-28" value="1" style="text;html=1;align=center;verticalAlign=middle;resizable=0;points=[];autosize=1;strokeColor=none;fillColor=none;" vertex="1" parent="1">
          <mxGeometry x="275" y="448" width="30" height="30" as="geometry" />
        </mxCell>
        <mxCell id="ux-VT5GkIsKEfBcYhYNy-29" value="(1,n)" style="text;html=1;align=center;verticalAlign=middle;resizable=0;points=[];autosize=1;strokeColor=none;fillColor=none;" vertex="1" parent="1">
          <mxGeometry x="375" y="368" width="50" height="30" as="geometry" />
        </mxCell>
        <mxCell id="ux-VT5GkIsKEfBcYhYNy-30" value="1" style="text;html=1;strokeColor=none;fillColor=none;align=center;verticalAlign=middle;whiteSpace=wrap;rounded=0;" vertex="1" parent="1">
          <mxGeometry x="580" y="470" width="60" height="30" as="geometry" />
        </mxCell>
        <mxCell id="ux-VT5GkIsKEfBcYhYNy-31" value="n" style="text;html=1;align=center;verticalAlign=middle;resizable=0;points=[];autosize=1;strokeColor=none;fillColor=none;" vertex="1" parent="1">
          <mxGeometry x="585" y="678" width="30" height="30" as="geometry" />
        </mxCell>
        <mxCell id="ux-VT5GkIsKEfBcYhYNy-32" value="1" style="text;html=1;align=center;verticalAlign=middle;resizable=0;points=[];autosize=1;strokeColor=none;fillColor=none;" vertex="1" parent="1">
          <mxGeometry x="685" y="678" width="30" height="30" as="geometry" />
        </mxCell>
        <mxCell id="ux-VT5GkIsKEfBcYhYNy-33" value="1" style="text;html=1;align=center;verticalAlign=middle;resizable=0;points=[];autosize=1;strokeColor=none;fillColor=none;" vertex="1" parent="1">
          <mxGeometry x="685" y="458" width="30" height="30" as="geometry" />
        </mxCell>
        <mxCell id="ux-VT5GkIsKEfBcYhYNy-34" value="(n,1)" style="text;html=1;align=center;verticalAlign=middle;resizable=0;points=[];autosize=1;strokeColor=none;fillColor=none;" vertex="1" parent="1">
          <mxGeometry x="715" y="558" width="50" height="30" as="geometry" />
        </mxCell>
        <mxCell id="ux-VT5GkIsKEfBcYhYNy-35" value="1" style="text;html=1;align=center;verticalAlign=middle;resizable=0;points=[];autosize=1;strokeColor=none;fillColor=none;" vertex="1" parent="1">
          <mxGeometry x="565" y="698" width="30" height="30" as="geometry" />
        </mxCell>
        <mxCell id="ux-VT5GkIsKEfBcYhYNy-36" value="1" style="text;html=1;align=center;verticalAlign=middle;resizable=0;points=[];autosize=1;strokeColor=none;fillColor=none;" vertex="1" parent="1">
          <mxGeometry x="245" y="698" width="30" height="30" as="geometry" />
        </mxCell>
        <mxCell id="ux-VT5GkIsKEfBcYhYNy-37" value="1" style="text;html=1;align=center;verticalAlign=middle;resizable=0;points=[];autosize=1;strokeColor=none;fillColor=none;" vertex="1" parent="1">
          <mxGeometry x="245" y="758" width="30" height="30" as="geometry" />
        </mxCell>
        <mxCell id="ux-VT5GkIsKEfBcYhYNy-38" value="n" style="text;html=1;align=center;verticalAlign=middle;resizable=0;points=[];autosize=1;strokeColor=none;fillColor=none;" vertex="1" parent="1">
          <mxGeometry x="565" y="758" width="30" height="30" as="geometry" />
        </mxCell>
        <mxCell id="ux-VT5GkIsKEfBcYhYNy-39" value="(1,n)" style="text;html=1;align=center;verticalAlign=middle;resizable=0;points=[];autosize=1;strokeColor=none;fillColor=none;" vertex="1" parent="1">
          <mxGeometry x="375" y="658" width="50" height="30" as="geometry" />
        </mxCell>
        <mxCell id="ux-VT5GkIsKEfBcYhYNy-42" value="saldo" style="ellipse;whiteSpace=wrap;html=1;" vertex="1" parent="1">
          <mxGeometry x="810" y="620" width="120" height="80" as="geometry" />
        </mxCell>
        <mxCell id="ux-VT5GkIsKEfBcYhYNy-43" style="edgeStyle=orthogonalEdgeStyle;rounded=0;orthogonalLoop=1;jettySize=auto;html=1;entryX=0;entryY=1.133;entryDx=0;entryDy=0;entryPerimeter=0;" edge="1" parent="1" source="ux-VT5GkIsKEfBcYhYNy-42" target="ux-VT5GkIsKEfBcYhYNy-32">
          <mxGeometry relative="1" as="geometry" />
        </mxCell>
        <mxCell id="ux-VT5GkIsKEfBcYhYNy-45" style="edgeStyle=orthogonalEdgeStyle;rounded=0;orthogonalLoop=1;jettySize=auto;html=1;entryX=1;entryY=0.5;entryDx=0;entryDy=0;" edge="1" parent="1" source="ux-VT5GkIsKEfBcYhYNy-44" target="ux-VT5GkIsKEfBcYhYNy-6">
          <mxGeometry relative="1" as="geometry" />
        </mxCell>
        <mxCell id="ux-VT5GkIsKEfBcYhYNy-44" value="id_cliente" style="ellipse;whiteSpace=wrap;html=1;fillColor=#A680B8;" vertex="1" parent="1">
          <mxGeometry x="810" y="710" width="120" height="80" as="geometry" />
        </mxCell>
        <mxCell id="ux-VT5GkIsKEfBcYhYNy-49" style="edgeStyle=orthogonalEdgeStyle;rounded=0;orthogonalLoop=1;jettySize=auto;html=1;entryX=0;entryY=0;entryDx=0;entryDy=0;" edge="1" parent="1" source="ux-VT5GkIsKEfBcYhYNy-46" target="ux-VT5GkIsKEfBcYhYNy-8">
          <mxGeometry relative="1" as="geometry" />
        </mxCell>
        <mxCell id="ux-VT5GkIsKEfBcYhYNy-46" value="id_cliente" style="ellipse;whiteSpace=wrap;html=1;" vertex="1" parent="1">
          <mxGeometry x="20" y="620" width="120" height="80" as="geometry" />
        </mxCell>
        <mxCell id="ux-VT5GkIsKEfBcYhYNy-48" style="edgeStyle=orthogonalEdgeStyle;rounded=0;orthogonalLoop=1;jettySize=auto;html=1;entryX=0;entryY=1;entryDx=0;entryDy=0;" edge="1" parent="1" source="ux-VT5GkIsKEfBcYhYNy-47" target="ux-VT5GkIsKEfBcYhYNy-8">
          <mxGeometry relative="1" as="geometry" />
        </mxCell>
        <mxCell id="ux-VT5GkIsKEfBcYhYNy-47" value="datosPersonales" style="ellipse;whiteSpace=wrap;html=1;" vertex="1" parent="1">
          <mxGeometry x="10" y="810" width="120" height="80" as="geometry" />
        </mxCell>
        <mxCell id="ux-VT5GkIsKEfBcYhYNy-50" value="tipo_movimiento" style="rounded=0;whiteSpace=wrap;html=1;" vertex="1" parent="1">
          <mxGeometry x="827" y="1090" width="120" height="60" as="geometry" />
        </mxCell>
        <mxCell id="ux-VT5GkIsKEfBcYhYNy-53" value="pertenece" style="rhombus;whiteSpace=wrap;html=1;" vertex="1" parent="1">
          <mxGeometry x="615" y="1070" width="80" height="80" as="geometry" />
        </mxCell>
        <mxCell id="ux-VT5GkIsKEfBcYhYNy-56" style="edgeStyle=orthogonalEdgeStyle;rounded=0;orthogonalLoop=1;jettySize=auto;html=1;entryX=0;entryY=0.5;entryDx=0;entryDy=0;" edge="1" parent="1" source="ux-VT5GkIsKEfBcYhYNy-54" target="ux-VT5GkIsKEfBcYhYNy-53">
          <mxGeometry relative="1" as="geometry" />
        </mxCell>
        <mxCell id="ux-VT5GkIsKEfBcYhYNy-54" value="Movimientos" style="rounded=0;whiteSpace=wrap;html=1;" vertex="1" parent="1">
          <mxGeometry x="414" y="1080" width="120" height="60" as="geometry" />
        </mxCell>
        <mxCell id="ux-VT5GkIsKEfBcYhYNy-57" style="edgeStyle=orthogonalEdgeStyle;rounded=0;orthogonalLoop=1;jettySize=auto;html=1;entryX=0;entryY=0.4;entryDx=0;entryDy=0;entryPerimeter=0;" edge="1" parent="1" source="ux-VT5GkIsKEfBcYhYNy-53" target="ux-VT5GkIsKEfBcYhYNy-50">
          <mxGeometry relative="1" as="geometry" />
        </mxCell>
        <mxCell id="ux-VT5GkIsKEfBcYhYNy-59" value="idsucursal" style="ellipse;whiteSpace=wrap;html=1;fillColor=#A680B8;" vertex="1" parent="1">
          <mxGeometry x="620" y="280" width="120" height="80" as="geometry" />
        </mxCell>
        <mxCell id="ux-VT5GkIsKEfBcYhYNy-60" style="edgeStyle=orthogonalEdgeStyle;rounded=0;orthogonalLoop=1;jettySize=auto;html=1;entryX=0.367;entryY=-0.017;entryDx=0;entryDy=0;entryPerimeter=0;" edge="1" parent="1" source="ux-VT5GkIsKEfBcYhYNy-59" target="ux-VT5GkIsKEfBcYhYNy-4">
          <mxGeometry relative="1" as="geometry" />
        </mxCell>
        <mxCell id="ux-VT5GkIsKEfBcYhYNy-62" value="(n,1)" style="text;html=1;align=center;verticalAlign=middle;resizable=0;points=[];autosize=1;strokeColor=none;fillColor=none;" vertex="1" parent="1">
          <mxGeometry x="685" y="898" width="50" height="30" as="geometry" />
        </mxCell>
        <mxCell id="ux-VT5GkIsKEfBcYhYNy-63" value="1" style="text;html=1;align=center;verticalAlign=middle;resizable=0;points=[];autosize=1;strokeColor=none;fillColor=none;" vertex="1" parent="1">
          <mxGeometry x="795" y="1068" width="30" height="30" as="geometry" />
        </mxCell>
        <mxCell id="ux-VT5GkIsKEfBcYhYNy-64" value="1" style="text;html=1;align=center;verticalAlign=middle;resizable=0;points=[];autosize=1;strokeColor=none;fillColor=none;" vertex="1" parent="1">
          <mxGeometry x="805" y="1138" width="30" height="30" as="geometry" />
        </mxCell>
        <mxCell id="ux-VT5GkIsKEfBcYhYNy-65" value="1" style="text;html=1;align=center;verticalAlign=middle;resizable=0;points=[];autosize=1;strokeColor=none;fillColor=none;" vertex="1" parent="1">
          <mxGeometry x="535" y="1068" width="30" height="30" as="geometry" />
        </mxCell>
        <mxCell id="ux-VT5GkIsKEfBcYhYNy-66" value="n" style="text;html=1;align=center;verticalAlign=middle;resizable=0;points=[];autosize=1;strokeColor=none;fillColor=none;" vertex="1" parent="1">
          <mxGeometry x="535" y="1118" width="30" height="30" as="geometry" />
        </mxCell>
        <mxCell id="ux-VT5GkIsKEfBcYhYNy-67" value="(n,1)" style="text;html=1;align=center;verticalAlign=middle;resizable=0;points=[];autosize=1;strokeColor=none;fillColor=none;" vertex="1" parent="1">
          <mxGeometry x="630" y="1038" width="50" height="30" as="geometry" />
        </mxCell>
        <mxCell id="ux-VT5GkIsKEfBcYhYNy-68" value="id_cuenta" style="ellipse;whiteSpace=wrap;html=1;fillColor=#A680B8;" vertex="1" parent="1">
          <mxGeometry x="250" y="1250" width="120" height="80" as="geometry" />
        </mxCell>
        <mxCell id="ux-VT5GkIsKEfBcYhYNy-69" value="ID_tipo_movimiento" style="ellipse;whiteSpace=wrap;html=1;fillColor=#A680B8;" vertex="1" parent="1">
          <mxGeometry x="390" y="1250" width="120" height="80" as="geometry" />
        </mxCell>
        <mxCell id="ux-VT5GkIsKEfBcYhYNy-70" style="edgeStyle=orthogonalEdgeStyle;rounded=0;orthogonalLoop=1;jettySize=auto;html=1;entryX=0.833;entryY=1.05;entryDx=0;entryDy=0;entryPerimeter=0;" edge="1" parent="1" source="ux-VT5GkIsKEfBcYhYNy-69" target="ux-VT5GkIsKEfBcYhYNy-54">
          <mxGeometry relative="1" as="geometry" />
        </mxCell>
        <mxCell id="ux-VT5GkIsKEfBcYhYNy-71" style="edgeStyle=orthogonalEdgeStyle;rounded=0;orthogonalLoop=1;jettySize=auto;html=1;entryX=0.2;entryY=1.067;entryDx=0;entryDy=0;entryPerimeter=0;" edge="1" parent="1" source="ux-VT5GkIsKEfBcYhYNy-68" target="ux-VT5GkIsKEfBcYhYNy-54">
          <mxGeometry relative="1" as="geometry" />
        </mxCell>
        <mxCell id="ux-VT5GkIsKEfBcYhYNy-73" style="edgeStyle=orthogonalEdgeStyle;rounded=0;orthogonalLoop=1;jettySize=auto;html=1;entryX=0.5;entryY=0;entryDx=0;entryDy=0;" edge="1" parent="1" source="ux-VT5GkIsKEfBcYhYNy-72" target="ux-VT5GkIsKEfBcYhYNy-2">
          <mxGeometry relative="1" as="geometry" />
        </mxCell>
        <mxCell id="ux-VT5GkIsKEfBcYhYNy-72" value="id_banco" style="ellipse;whiteSpace=wrap;html=1;fillColor=#FFFFFF;" vertex="1" parent="1">
          <mxGeometry x="80" y="290" width="120" height="80" as="geometry" />
        </mxCell>
        <mxCell id="ux-VT5GkIsKEfBcYhYNy-74" value="1" style="text;html=1;align=center;verticalAlign=middle;resizable=0;points=[];autosize=1;strokeColor=none;fillColor=none;" vertex="1" parent="1">
          <mxGeometry x="445" y="1048" width="30" height="30" as="geometry" />
        </mxCell>
        <mxCell id="ux-VT5GkIsKEfBcYhYNy-76" value="n" style="text;html=1;align=center;verticalAlign=middle;resizable=0;points=[];autosize=1;strokeColor=none;fillColor=none;" vertex="1" parent="1">
          <mxGeometry x="495" y="1048" width="30" height="30" as="geometry" />
        </mxCell>
        <mxCell id="ux-VT5GkIsKEfBcYhYNy-77" value="1" style="text;html=1;align=center;verticalAlign=middle;resizable=0;points=[];autosize=1;strokeColor=none;fillColor=none;" vertex="1" parent="1">
          <mxGeometry x="605" y="838" width="30" height="30" as="geometry" />
        </mxCell>
        <mxCell id="ux-VT5GkIsKEfBcYhYNy-78" value="1" style="text;html=1;align=center;verticalAlign=middle;resizable=0;points=[];autosize=1;strokeColor=none;fillColor=none;" vertex="1" parent="1">
          <mxGeometry x="665" y="840" width="30" height="30" as="geometry" />
        </mxCell>
        <mxCell id="ux-VT5GkIsKEfBcYhYNy-79" value="id_sucursal" style="ellipse;whiteSpace=wrap;html=1;fillColor=#A680B8;" vertex="1" parent="1">
          <mxGeometry x="827" y="508" width="120" height="80" as="geometry" />
        </mxCell>
        <mxCell id="ux-VT5GkIsKEfBcYhYNy-80" style="edgeStyle=orthogonalEdgeStyle;rounded=0;orthogonalLoop=1;jettySize=auto;html=1;entryX=0.842;entryY=0.05;entryDx=0;entryDy=0;entryPerimeter=0;" edge="1" parent="1" source="ux-VT5GkIsKEfBcYhYNy-79" target="ux-VT5GkIsKEfBcYhYNy-6">
          <mxGeometry relative="1" as="geometry" />
        </mxCell>
      </root>
    </mxGraphModel>
  </diagram>
</mxfile>
